{
    "asset" : {
        "generator" : "Khronos glTF Blender I/O v0.9.36",
        "version" : "2.0"
    },
    "scene" : 0,
    "scenes" : [
        {
            "name" : "Scene",
            "nodes" : [
                0
            ]
        }
    ],
    "nodes" : [
        {
            "mesh" : 0,
            "name" : "\u0418\u043a\u043e\u0441\u0444\u0435\u0440\u0430"
        }
    ],
    "materials" : [
        {
            "doubleSided" : true,
            "name" : "Material",
            "pbrMetallicRoughness" : {
                "baseColorFactor" : [
                    0.026597095653414726,
                    0.010832637548446655,
                    0.006369955837726593,
                    1
                ],
                "metallicFactor" : 0,
                "roughnessFactor" : 0.4000000059604645
            }
        }
    ],
    "meshes" : [
        {
            "name" : "\u0418\u043a\u043e\u0441\u0444\u0435\u0440\u0430",
            "primitives" : [
                {
                    "attributes" : {
                        "POSITION" : 0,
                        "NORMAL" : 1,
                        "TEXCOORD_0" : 2
                    },
                    "indices" : 3,
                    "material" : 0
                }
            ]
        }
    ],
    "accessors" : [
        {
            "bufferView" : 0,
            "componentType" : 5126,
            "count" : 1577,
            "max" : [
                0.9977083802223206,
                1.0434937477111816,
                1.0246860980987549
            ],
            "min" : [
                -0.9991164207458496,
                -0.9780523180961609,
                -1.0184102058410645
            ],
            "type" : "VEC3"
        },
        {
            "bufferView" : 1,
            "componentType" : 5126,
            "count" : 1577,
            "type" : "VEC3"
        },
        {
            "bufferView" : 2,
            "componentType" : 5126,
            "count" : 1577,
            "type" : "VEC2"
        },
        {
            "bufferView" : 3,
            "componentType" : 5123,
            "count" : 1959,
            "type" : "SCALAR"
        }
    ],
    "bufferViews" : [
        {
            "buffer" : 0,
            "byteLength" : 18924,
            "byteOffset" : 0
        },
        {
            "buffer" : 0,
            "byteLength" : 18924,
            "byteOffset" : 18924
        },
        {
            "buffer" : 0,
            "byteLength" : 12616,
            "byteOffset" : 37848
        },
        {
            "buffer" : 0,
            "byteLength" : 3918,
            "byteOffset" : 50464
        }
    ],
    "buffers" : [
        {
            "byteLength" : 54384,
            "uri" : "data:application/octet-stream;base64,"
        }
    ]
}
