{
    "asset" : {
        "generator" : "Khronos glTF Blender I/O v0.9.36",
        "version" : "2.0"
    },
    "scene" : 0,
    "scenes" : [
        {
            "name" : "Scene",
            "nodes" : [
                0,
                1,
                2,
                3,
                4,
                5,
                6
            ]
        }
    ],
    "nodes" : [
        {
            "mesh" : 0,
            "name" : "head_base",
            "translation" : [
                0,
                3.2029409408569336,
                5.753053665161133
            ]
        },
        {
            "mesh" : 1,
            "name" : "eye_r",
            "rotation" : [
                -0.16251155734062195,
                0,
                0,
                0.9867066144943237
            ],
            "scale" : [
                0.5200000405311584,
                0.5200000405311584,
                0.5200000405311584
            ],
            "translation" : [
                0.8300000429153442,
                4.702940940856934,
                1.7530536651611328
            ]
        },
        {
            "mesh" : 2,
            "name" : "eye_l",
            "rotation" : [
                -0.16251155734062195,
                0,
                0,
                0.9867066144943237
            ],
            "scale" : [
                0.5200000405311584,
                0.5200000405311584,
                0.5200000405311584
            ],
            "translation" : [
                -0.8200000524520874,
                4.702940940856934,
                1.7530536651611328
            ]
        },
        {
            "mesh" : 3,
            "name" : "pupil_l",
            "rotation" : [
                -0.16251155734062195,
                0,
                0,
                0.9867066144943237
            ],
            "scale" : [
                0.25295165181159973,
                0.25295165181159973,
                0.25295165181159973
            ],
            "translation" : [
                -0.8116660118103027,
                4.8383073806762695,
                2.077913284301758
            ]
        },
        {
            "mesh" : 4,
            "name" : "pupil_r",
            "rotation" : [
                -0.16251155734062195,
                0,
                0,
                0.9867066144943237
            ],
            "scale" : [
                0.25295165181159973,
                0.25295165181159973,
                0.25295165181159973
            ],
            "translation" : [
                0.8540492653846741,
                4.8383073806762695,
                2.077913284301758
            ]
        },
        {
            "mesh" : 5,
            "name" : "helmet",
            "rotation" : [
                0,
                0,
                -0.7071067690849304,
                0.7071067690849304
            ],
            "translation" : [
                -0.004060462117195129,
                4.958003997802734,
                1.2840356826782227
            ]
        },
        {
            "mesh" : 6,
            "name" : "glass",
            "scale" : [
                4.090076923370361,
                4.090076923370361,
                4.090076923370361
            ],
            "translation" : [
                -0.003974372986704111,
                11.432222366333008,
                5.317909240722656
            ]
        }
    ],
    "materials" : [
        {
            "doubleSided" : true,
            "name" : "\u041c\u0430\u0442\u0435\u0440\u0438\u0430\u043b.002",
            "pbrMetallicRoughness" : {
                "baseColorFactor" : [
                    0.16278691589832306,
                    0.20581607520580292,
                    0.22871921956539154,
                    1
                ],
                "metallicFactor" : 0,
                "roughnessFactor" : 0.5
            }
        },
        {
            "doubleSided" : true,
            "name" : "\u0433\u043b\u0430\u0437",
            "pbrMetallicRoughness" : {
                "baseColorFactor" : [
                    0.800000011920929,
                    0.800000011920929,
                    0.800000011920929,
                    1
                ],
                "metallicFactor" : 0,
                "roughnessFactor" : 0.5
            }
        },
        {
            "doubleSided" : true,
            "name" : "\u041c\u0430\u0442\u0435\u0440\u0438\u0430\u043b",
            "pbrMetallicRoughness" : {
                "baseColorFactor" : [
                    0,
                    0,
                    0,
                    1
                ],
                "metallicFactor" : 0,
                "roughnessFactor" : 0.5
            }
        },
        {
            "doubleSided" : true,
            "name" : "\u041c\u0430\u0442\u0435\u0440\u0438\u0430\u043b.001",
            "pbrMetallicRoughness" : {}
        }
    ],
    "meshes" : [
        {
            "name" : "\u041a\u0443\u0431",
            "primitives" : [
                {
                    "attributes" : {
                        "POSITION" : 0,
                        "NORMAL" : 1,
                        "TEXCOORD_0" : 2
                    },
                    "indices" : 3,
                    "material" : 0
                }
            ]
        },
        {
            "name" : "\u041a\u0443\u0431.001",
            "primitives" : [
                {
                    "attributes" : {
                        "POSITION" : 4,
                        "NORMAL" : 5,
                        "TEXCOORD_0" : 6
                    },
                    "indices" : 7
                }
            ]
        },
        {
            "name" : "\u041a\u0443\u0431.002",
            "primitives" : [
                {
                    "attributes" : {
                        "POSITION" : 8,
                        "NORMAL" : 9,
                        "TEXCOORD_0" : 10
                    },
                    "indices" : 7,
                    "material" : 1
                }
            ]
        },
        {
            "name" : "\u041a\u0443\u0431.003",
            "primitives" : [
                {
                    "attributes" : {
                        "POSITION" : 11,
                        "NORMAL" : 12,
                        "TEXCOORD_0" : 13
                    },
                    "indices" : 7,
                    "material" : 2
                }
            ]
        },
        {
            "name" : "\u041a\u0443\u0431.004",
            "primitives" : [
                {
                    "attributes" : {
                        "POSITION" : 14,
                        "NORMAL" : 15,
                        "TEXCOORD_0" : 16
                    },
                    "indices" : 7,
                    "material" : 2
                }
            ]
        },
        {
            "name" : "\u0421\u0444\u0435\u0440\u0430",
            "primitives" : [
                {
                    "attributes" : {
                        "POSITION" : 17,
                        "NORMAL" : 18,
                        "TEXCOORD_0" : 19
                    },
                    "indices" : 20
                }
            ]
        },
        {
            "name" : "\u0421\u0444\u0435\u0440\u0430.001",
            "primitives" : [
                {
                    "attributes" : {
                        "POSITION" : 21,
                        "NORMAL" : 22,
                        "TEXCOORD_0" : 23
                    },
                    "indices" : 24,
                    "material" : 3
                }
            ]
        }
    ],
    "accessors" : [
        {
            "bufferView" : 0,
            "componentType" : 5126,
            "count" : 514,
            "max" : [
                2,
                4.5,
                1.2000000476837158
            ],
            "min" : [
                -2,
                -1.5,
                -8
            ],
            "type" : "VEC3"
        },
        {
            "bufferView" : 1,
            "componentType" : 5126,
            "count" : 514,
            "type" : "VEC3"
        },
        {
            "bufferView" : 2,
            "componentType" : 5126,
            "count" : 514,
            "type" : "VEC2"
        },
        {
            "bufferView" : 3,
            "componentType" : 5123,
            "count" : 900,
            "type" : "SCALAR"
        },
        {
            "bufferView" : 4,
            "componentType" : 5126,
            "count" : 24,
            "max" : [
                1,
                1,
                1
            ],
            "min" : [
                -1,
                -1,
                -1
            ],
            "type" : "VEC3"
        },
        {
            "bufferView" : 5,
            "componentType" : 5126,
            "count" : 24,
            "type" : "VEC3"
        },
        {
            "bufferView" : 6,
            "componentType" : 5126,
            "count" : 24,
            "type" : "VEC2"
        },
        {
            "bufferView" : 7,
            "componentType" : 5123,
            "count" : 36,
            "type" : "SCALAR"
        },
        {
            "bufferView" : 8,
            "componentType" : 5126,
            "count" : 24,
            "max" : [
                1,
                1,
                1
            ],
            "min" : [
                -1,
                -1,
                -1
            ],
            "type" : "VEC3"
        },
        {
            "bufferView" : 9,
            "componentType" : 5126,
            "count" : 24,
            "type" : "VEC3"
        },
        {
            "bufferView" : 10,
            "componentType" : 5126,
            "count" : 24,
            "type" : "VEC2"
        },
        {
            "bufferView" : 11,
            "componentType" : 5126,
            "count" : 24,
            "max" : [
                1,
                1,
                1
            ],
            "min" : [
                -1,
                -1,
                -1
            ],
            "type" : "VEC3"
        },
        {
            "bufferView" : 12,
            "componentType" : 5126,
            "count" : 24,
            "type" : "VEC3"
        },
        {
            "bufferView" : 13,
            "componentType" : 5126,
            "count" : 24,
            "type" : "VEC2"
        },
        {
            "bufferView" : 14,
            "componentType" : 5126,
            "count" : 24,
            "max" : [
                1,
                1,
                1
            ],
            "min" : [
                -1,
                -1,
                -1
            ],
            "type" : "VEC3"
        },
        {
            "bufferView" : 15,
            "componentType" : 5126,
            "count" : 24,
            "type" : "VEC3"
        },
        {
            "bufferView" : 16,
            "componentType" : 5126,
            "count" : 24,
            "type" : "VEC2"
        },
        {
            "bufferView" : 17,
            "componentType" : 5126,
            "count" : 512,
            "max" : [
                4.970019340515137,
                3.764486074447632,
                0.8883379697799683
            ],
            "min" : [
                -3.7391722202301025,
                -3.764486074447632,
                -5.6435546875
            ],
            "type" : "VEC3"
        },
        {
            "bufferView" : 18,
            "componentType" : 5126,
            "count" : 512,
            "type" : "VEC3"
        },
        {
            "bufferView" : 19,
            "componentType" : 5126,
            "count" : 512,
            "type" : "VEC2"
        },
        {
            "bufferView" : 20,
            "componentType" : 5123,
            "count" : 816,
            "type" : "SCALAR"
        },
        {
            "bufferView" : 21,
            "componentType" : 5126,
            "count" : 716,
            "max" : [
                0.9470170140266418,
                -0.7572422623634338,
                0.9238780736923218
            ],
            "min" : [
                -0.9470170140266418,
                -2.757241725921631,
                -1.1824414730072021
            ],
            "type" : "VEC3"
        },
        {
            "bufferView" : 22,
            "componentType" : 5126,
            "count" : 716,
            "type" : "VEC3"
        },
        {
            "bufferView" : 23,
            "componentType" : 5126,
            "count" : 716,
            "type" : "VEC2"
        },
        {
            "bufferView" : 24,
            "componentType" : 5123,
            "count" : 1116,
            "type" : "SCALAR"
        }
    ],
    "bufferViews" : [
        {
            "buffer" : 0,
            "byteLength" : 6168,
            "byteOffset" : 0
        },
        {
            "buffer" : 0,
            "byteLength" : 6168,
            "byteOffset" : 6168
        },
        {
            "buffer" : 0,
            "byteLength" : 4112,
            "byteOffset" : 12336
        },
        {
            "buffer" : 0,
            "byteLength" : 1800,
            "byteOffset" : 16448
        },
        {
            "buffer" : 0,
            "byteLength" : 288,
            "byteOffset" : 18248
        },
        {
            "buffer" : 0,
            "byteLength" : 288,
            "byteOffset" : 18536
        },
        {
            "buffer" : 0,
            "byteLength" : 192,
            "byteOffset" : 18824
        },
        {
            "buffer" : 0,
            "byteLength" : 72,
            "byteOffset" : 19016
        },
        {
            "buffer" : 0,
            "byteLength" : 288,
            "byteOffset" : 19088
        },
        {
            "buffer" : 0,
            "byteLength" : 288,
            "byteOffset" : 19376
        },
        {
            "buffer" : 0,
            "byteLength" : 192,
            "byteOffset" : 19664
        },
        {
            "buffer" : 0,
            "byteLength" : 288,
            "byteOffset" : 19856
        },
        {
            "buffer" : 0,
            "byteLength" : 288,
            "byteOffset" : 20144
        },
        {
            "buffer" : 0,
            "byteLength" : 192,
            "byteOffset" : 20432
        },
        {
            "buffer" : 0,
            "byteLength" : 288,
            "byteOffset" : 20624
        },
        {
            "buffer" : 0,
            "byteLength" : 288,
            "byteOffset" : 20912
        },
        {
            "buffer" : 0,
            "byteLength" : 192,
            "byteOffset" : 21200
        },
        {
            "buffer" : 0,
            "byteLength" : 6144,
            "byteOffset" : 21392
        },
        {
            "buffer" : 0,
            "byteLength" : 6144,
            "byteOffset" : 27536
        },
        {
            "buffer" : 0,
            "byteLength" : 4096,
            "byteOffset" : 33680
        },
        {
            "buffer" : 0,
            "byteLength" : 1632,
            "byteOffset" : 37776
        },
        {
            "buffer" : 0,
            "byteLength" : 8592,
            "byteOffset" : 39408
        },
        {
            "buffer" : 0,
            "byteLength" : 8592,
            "byteOffset" : 48000
        },
        {
            "buffer" : 0,
            "byteLength" : 5728,
            "byteOffset" : 56592
        },
        {
            "buffer" : 0,
            "byteLength" : 2232,
            "byteOffset" : 62320
        }
    ],
    "buffers" : [
        {
            "byteLength" : 64552,
            "uri" : "data:application/octet-stream;base64,"
        }
    ]
}
